<svg xmlns="http://www.w3.org/2000/svg" xmlns:xlink="http://www.w3.org/1999/xlink" width="1920" zoomAndPan="magnify" viewBox="0 0 1440 1439.999935" height="1920" preserveAspectRatio="xMidYMid meet" version="1.0"><defs><clipPath id="4d589120cb"><path d="M 1 257.890625 L 1439 257.890625 L 1439 1181.890625 L 1 1181.890625 Z M 1 257.890625 " clip-rule="nonzero"/></clipPath></defs><g clip-path="url(#4d589120cb)"><path fill="#ffffff" d="M 720 257.890625 C 554.414062 257.890625 405.511719 442.691406 279.714844 665.992188 L 52.515625 1071.523438 L 52.515625 1040.722656 L 1.167969 1040.722656 L 1.167969 1181.890625 L 52.515625 1181.890625 L 52.515625 1153.65625 L 316.941406 691.65625 L 633.996094 495.308594 C 691.761719 459.375 695.609375 452.957031 720 452.957031 C 744.390625 452.957031 748.238281 460.65625 806.003906 495.308594 L 1123.058594 691.65625 L 1387.484375 1153.65625 L 1387.484375 1181.890625 L 1438.832031 1181.890625 L 1438.832031 1039.441406 L 1387.484375 1039.441406 L 1387.484375 1071.523438 L 1159 665.992188 C 1034.488281 442.691406 885.585938 257.890625 720 257.890625 Z M 537.726562 599.257812 L 352.882812 712.191406 L 159.054688 1156.222656 L 1280.945312 1156.222656 L 1087.117188 712.191406 L 903.558594 599.257812 L 940.785156 959.875 C 943.351562 990.675781 918.960938 1016.339844 892.003906 1016.339844 L 550.5625 1016.339844 C 523.605469 1016.339844 499.214844 990.675781 501.785156 959.875 Z M 537.726562 599.257812 " fill-opacity="1" fill-rule="nonzero"/></g></svg>