<svg xmlns="http://www.w3.org/2000/svg" xmlns:xlink="http://www.w3.org/1999/xlink" width="1920" zoomAndPan="magnify" viewBox="0 0 1440 1439.999935" height="1920" preserveAspectRatio="xMidYMid meet" version="1.0"><defs><clipPath id="1045f6d0d4"><path d="M 651 1189 L 854 1189 L 854 1391.101562 L 651 1391.101562 Z M 651 1189 " clip-rule="nonzero"/></clipPath><clipPath id="be2e8cc689"><path d="M 841 48.601562 L 1427 48.601562 L 1427 741 L 841 741 Z M 841 48.601562 " clip-rule="nonzero"/></clipPath></defs><path fill="#ffffff" d="M 113.648438 1241.570312 C 119.917969 1247.324219 126.394531 1252.84375 133.074219 1258.121094 C 139.75 1263.402344 146.617188 1268.429688 153.664062 1273.203125 C 160.714844 1277.976562 167.929688 1282.484375 175.3125 1286.726562 C 182.691406 1290.96875 190.21875 1294.933594 197.894531 1298.617188 C 205.566406 1302.304688 213.367188 1305.707031 221.292969 1308.820312 C 229.214844 1311.933594 237.242188 1314.75 245.375 1317.269531 C 253.507812 1319.792969 261.722656 1322.011719 270.015625 1323.925781 C 278.3125 1325.84375 286.667969 1327.449219 295.082031 1328.75 C 296 1324.125 296.785156 1319.472656 297.4375 1314.796875 C 298.089844 1310.125 298.601562 1305.4375 298.980469 1300.734375 C 299.359375 1296.03125 299.601562 1291.320312 299.707031 1286.601562 C 299.8125 1281.882812 299.78125 1277.167969 299.613281 1272.449219 C 299.445312 1267.734375 299.140625 1263.027344 298.703125 1258.332031 C 298.261719 1253.632812 297.683594 1248.949219 296.972656 1244.285156 C 296.257812 1239.621094 295.414062 1234.980469 294.429688 1230.363281 C 293.449219 1225.75 292.335938 1221.167969 291.085938 1216.617188 C 289.839844 1212.0625 288.460938 1207.554688 286.953125 1203.082031 C 285.445312 1198.609375 283.808594 1194.1875 282.042969 1189.8125 C 280.277344 1185.433594 278.386719 1181.113281 276.371094 1176.847656 C 274.355469 1172.578125 272.214844 1168.375 269.957031 1164.230469 C 267.695312 1160.089844 265.320312 1156.015625 262.824219 1152.011719 C 260.328125 1148.007812 257.714844 1144.078125 254.992188 1140.222656 C 252.269531 1136.371094 249.433594 1132.597656 246.492188 1128.910156 C 243.550781 1125.21875 240.503906 1121.617188 237.351562 1118.105469 Z M 113.648438 1241.570312 " fill-opacity="1" fill-rule="nonzero"/><g clip-path="url(#1045f6d0d4)"><path fill="#ffffff" d="M 752.460938 1189.542969 C 750.8125 1189.542969 749.164062 1189.585938 747.519531 1189.664062 C 745.871094 1189.746094 744.226562 1189.867188 742.585938 1190.027344 C 740.945312 1190.191406 739.308594 1190.390625 737.679688 1190.632812 C 736.046875 1190.875 734.425781 1191.160156 732.808594 1191.480469 C 731.191406 1191.800781 729.582031 1192.164062 727.980469 1192.5625 C 726.382812 1192.964844 724.792969 1193.402344 723.214844 1193.882812 C 721.636719 1194.359375 720.074219 1194.878906 718.519531 1195.433594 C 716.96875 1195.988281 715.429688 1196.582031 713.90625 1197.210938 C 712.382812 1197.84375 710.875 1198.511719 709.386719 1199.214844 C 707.894531 1199.921875 706.421875 1200.660156 704.96875 1201.4375 C 703.515625 1202.214844 702.082031 1203.027344 700.667969 1203.875 C 699.253906 1204.722656 697.859375 1205.605469 696.488281 1206.519531 C 695.117188 1207.4375 693.769531 1208.386719 692.445312 1209.367188 C 691.121094 1210.351562 689.820312 1211.363281 688.546875 1212.410156 C 687.273438 1213.457031 686.023438 1214.53125 684.804688 1215.640625 C 683.582031 1216.746094 682.386719 1217.882812 681.222656 1219.046875 C 680.054688 1220.214844 678.917969 1221.40625 677.8125 1222.628906 C 676.703125 1223.851562 675.628906 1225.097656 674.582031 1226.371094 C 673.535156 1227.648438 672.523438 1228.945312 671.539062 1230.269531 C 670.558594 1231.59375 669.609375 1232.941406 668.691406 1234.3125 C 667.777344 1235.683594 666.894531 1237.074219 666.046875 1238.488281 C 665.199219 1239.902344 664.386719 1241.335938 663.609375 1242.792969 C 662.832031 1244.246094 662.089844 1245.71875 661.386719 1247.207031 C 660.679688 1248.699219 660.011719 1250.203125 659.382812 1251.726562 C 658.75 1253.25 658.15625 1254.789062 657.601562 1256.339844 C 657.046875 1257.890625 656.53125 1259.457031 656.050781 1261.035156 C 655.574219 1262.613281 655.132812 1264.199219 654.734375 1265.800781 C 654.332031 1267.398438 653.972656 1269.007812 653.648438 1270.625 C 653.328125 1272.242188 653.046875 1273.863281 652.804688 1275.496094 C 652.5625 1277.125 652.359375 1278.761719 652.199219 1280.402344 C 652.039062 1282.042969 651.917969 1283.6875 651.835938 1285.332031 C 651.753906 1286.980469 651.714844 1288.625 651.714844 1290.273438 C 651.714844 1291.921875 651.753906 1293.570312 651.835938 1295.21875 C 651.917969 1296.863281 652.039062 1298.507812 652.199219 1300.148438 C 652.359375 1301.789062 652.5625 1303.425781 652.804688 1305.054688 C 653.046875 1306.683594 653.328125 1308.308594 653.648438 1309.925781 C 653.972656 1311.542969 654.332031 1313.152344 654.734375 1314.75 C 655.132812 1316.347656 655.574219 1317.9375 656.050781 1319.515625 C 656.53125 1321.089844 657.046875 1322.65625 657.605469 1324.207031 C 658.160156 1325.761719 658.753906 1327.296875 659.382812 1328.820312 C 660.015625 1330.34375 660.683594 1331.851562 661.386719 1333.339844 C 662.09375 1334.832031 662.832031 1336.304688 663.609375 1337.757812 C 664.386719 1339.210938 665.199219 1340.644531 666.046875 1342.058594 C 666.894531 1343.472656 667.777344 1344.863281 668.695312 1346.234375 C 669.609375 1347.605469 670.558594 1348.953125 671.542969 1350.277344 C 672.523438 1351.601562 673.539062 1352.902344 674.582031 1354.175781 C 675.628906 1355.449219 676.707031 1356.699219 677.8125 1357.917969 C 678.921875 1359.140625 680.058594 1360.332031 681.222656 1361.5 C 682.390625 1362.664062 683.582031 1363.800781 684.804688 1364.910156 C 686.027344 1366.015625 687.273438 1367.09375 688.550781 1368.136719 C 689.824219 1369.183594 691.125 1370.199219 692.449219 1371.179688 C 693.773438 1372.160156 695.121094 1373.109375 696.492188 1374.027344 C 697.863281 1374.941406 699.253906 1375.824219 700.667969 1376.671875 C 702.082031 1377.519531 703.515625 1378.332031 704.972656 1379.109375 C 706.425781 1379.886719 707.898438 1380.625 709.390625 1381.332031 C 710.878906 1382.035156 712.386719 1382.703125 713.910156 1383.335938 C 715.433594 1383.964844 716.972656 1384.558594 718.523438 1385.113281 C 720.074219 1385.667969 721.640625 1386.1875 723.21875 1386.664062 C 724.796875 1387.144531 726.386719 1387.582031 727.984375 1387.984375 C 729.585938 1388.382812 731.191406 1388.746094 732.808594 1389.066406 C 734.425781 1389.386719 736.050781 1389.667969 737.683594 1389.910156 C 739.3125 1390.152344 740.949219 1390.355469 742.589844 1390.515625 C 744.230469 1390.679688 745.875 1390.800781 747.519531 1390.878906 C 749.167969 1390.960938 750.816406 1391 752.464844 1391.003906 C 754.113281 1391 755.761719 1390.960938 757.410156 1390.878906 C 759.054688 1390.800781 760.699219 1390.679688 762.339844 1390.515625 C 763.980469 1390.355469 765.617188 1390.152344 767.25 1389.910156 C 768.878906 1389.667969 770.503906 1389.386719 772.121094 1389.066406 C 773.738281 1388.746094 775.347656 1388.382812 776.945312 1387.984375 C 778.546875 1387.582031 780.132812 1387.144531 781.710938 1386.664062 C 783.289062 1386.1875 784.855469 1385.667969 786.40625 1385.113281 C 787.960938 1384.558594 789.496094 1383.964844 791.019531 1383.335938 C 792.542969 1382.703125 794.050781 1382.035156 795.542969 1381.332031 C 797.03125 1380.625 798.503906 1379.886719 799.957031 1379.109375 C 801.414062 1378.332031 802.847656 1377.519531 804.261719 1376.671875 C 805.675781 1375.824219 807.070312 1374.941406 808.4375 1374.027344 C 809.808594 1373.109375 811.15625 1372.160156 812.480469 1371.179688 C 813.808594 1370.195312 815.105469 1369.183594 816.378906 1368.136719 C 817.65625 1367.089844 818.902344 1366.015625 820.125 1364.90625 C 821.347656 1363.800781 822.539062 1362.664062 823.707031 1361.5 C 824.871094 1360.332031 826.007812 1359.140625 827.117188 1357.917969 C 828.222656 1356.695312 829.300781 1355.449219 830.347656 1354.175781 C 831.394531 1352.898438 832.40625 1351.601562 833.390625 1350.277344 C 834.371094 1348.953125 835.320312 1347.605469 836.238281 1346.234375 C 837.152344 1344.863281 838.035156 1343.472656 838.882812 1342.058594 C 839.730469 1340.644531 840.542969 1339.210938 841.320312 1337.757812 C 842.097656 1336.300781 842.839844 1334.828125 843.542969 1333.339844 C 844.246094 1331.847656 844.914062 1330.34375 845.546875 1328.820312 C 846.179688 1327.296875 846.769531 1325.757812 847.328125 1324.207031 C 847.882812 1322.65625 848.398438 1321.089844 848.878906 1319.511719 C 849.355469 1317.933594 849.796875 1316.347656 850.195312 1314.746094 C 850.597656 1313.148438 850.957031 1311.539062 851.28125 1309.925781 C 851.601562 1308.308594 851.882812 1306.683594 852.125 1305.054688 C 852.367188 1303.421875 852.570312 1301.785156 852.730469 1300.144531 C 852.894531 1298.503906 853.015625 1296.863281 853.09375 1295.214844 C 853.175781 1293.570312 853.214844 1291.921875 853.214844 1290.273438 C 853.214844 1288.625 853.171875 1286.976562 853.089844 1285.332031 C 853.007812 1283.6875 852.882812 1282.042969 852.722656 1280.402344 C 852.558594 1278.761719 852.355469 1277.128906 852.109375 1275.5 C 851.867188 1273.867188 851.585938 1272.246094 851.261719 1270.628906 C 850.9375 1269.011719 850.578125 1267.40625 850.175781 1265.808594 C 849.773438 1264.210938 849.332031 1262.621094 848.851562 1261.042969 C 848.371094 1259.46875 847.855469 1257.902344 847.296875 1256.351562 C 846.742188 1254.800781 846.148438 1253.265625 845.515625 1251.742188 C 844.886719 1250.21875 844.214844 1248.714844 843.511719 1247.226562 C 842.804688 1245.734375 842.0625 1244.265625 841.285156 1242.8125 C 840.507812 1241.359375 839.695312 1239.925781 838.847656 1238.511719 C 838 1237.097656 837.117188 1235.707031 836.203125 1234.335938 C 835.285156 1232.964844 834.335938 1231.621094 833.355469 1230.296875 C 832.371094 1228.972656 831.355469 1227.675781 830.3125 1226.398438 C 829.265625 1225.125 828.1875 1223.878906 827.082031 1222.65625 C 825.976562 1221.4375 824.839844 1220.242188 823.671875 1219.078125 C 822.507812 1217.914062 821.3125 1216.777344 820.09375 1215.671875 C 818.871094 1214.5625 817.625 1213.488281 816.347656 1212.441406 C 815.074219 1211.394531 813.777344 1210.382812 812.453125 1209.398438 C 811.128906 1208.417969 809.78125 1207.46875 808.410156 1206.554688 C 807.039062 1205.636719 805.648438 1204.753906 804.234375 1203.90625 C 802.820312 1203.058594 801.386719 1202.246094 799.933594 1201.46875 C 798.480469 1200.691406 797.007812 1199.953125 795.519531 1199.246094 C 794.03125 1198.539062 792.523438 1197.871094 791 1197.242188 C 789.480469 1196.609375 787.941406 1196.015625 786.390625 1195.460938 C 784.839844 1194.902344 783.273438 1194.386719 781.695312 1193.90625 C 780.121094 1193.425781 778.53125 1192.984375 776.933594 1192.585938 C 775.335938 1192.183594 773.726562 1191.820312 772.109375 1191.496094 C 770.492188 1191.175781 768.871094 1190.890625 767.238281 1190.648438 C 765.609375 1190.40625 763.972656 1190.203125 762.335938 1190.039062 C 760.695312 1189.875 759.050781 1189.753906 757.40625 1189.671875 C 755.757812 1189.585938 754.109375 1189.546875 752.460938 1189.542969 Z M 752.460938 1189.542969 " fill-opacity="1" fill-rule="nonzero"/></g><path fill="#ffffff" d="M 696.640625 960.675781 C 679.804688 963.792969 662.824219 965.355469 645.699219 965.363281 C 637.277344 965.363281 628.875 964.976562 620.492188 964.207031 C 612.109375 963.433594 603.777344 962.277344 595.5 960.738281 C 587.222656 959.199219 579.035156 957.285156 570.933594 954.992188 C 562.832031 952.703125 554.851562 950.042969 546.996094 947.015625 C 539.136719 943.992188 531.4375 940.609375 523.890625 936.875 C 516.347656 933.140625 508.988281 929.070312 501.816406 924.65625 C 494.644531 920.246094 487.691406 915.515625 480.957031 910.464844 C 474.222656 905.414062 467.734375 900.0625 461.488281 894.417969 L 370.210938 985.515625 L 605.765625 1220.601562 C 613.082031 1212.695312 620.015625 1204.464844 626.5625 1195.910156 C 633.109375 1187.351562 639.242188 1178.511719 644.960938 1169.378906 C 650.679688 1160.25 655.957031 1150.871094 660.796875 1141.246094 C 665.636719 1131.621094 670.015625 1121.792969 673.929688 1111.757812 C 677.847656 1101.722656 681.285156 1091.523438 684.246094 1081.167969 C 687.207031 1070.808594 689.679688 1060.335938 691.65625 1049.746094 C 693.636719 1039.15625 695.117188 1028.5 696.09375 1017.769531 C 697.074219 1007.042969 697.550781 996.292969 697.519531 985.519531 C 697.523438 977.191406 697.230469 968.910156 696.640625 960.675781 Z M 696.640625 960.675781 " fill-opacity="1" fill-rule="nonzero"/><path fill="#ffffff" d="M 258.394531 1097.121094 C 261.90625 1101.046875 265.304688 1105.070312 268.585938 1109.191406 C 271.871094 1113.3125 275.03125 1117.523438 278.074219 1121.820312 C 281.117188 1126.121094 284.035156 1130.503906 286.832031 1134.96875 C 289.625 1139.433594 292.289062 1143.976562 294.824219 1148.59375 C 297.363281 1153.210938 299.765625 1157.894531 302.035156 1162.648438 C 304.304688 1167.402344 306.4375 1172.214844 308.433594 1177.089844 C 310.429688 1181.964844 312.285156 1186.890625 314 1191.871094 C 315.714844 1196.851562 317.289062 1201.875 318.71875 1206.945312 C 320.148438 1212.015625 321.433594 1217.121094 322.574219 1222.261719 C 323.714844 1227.40625 324.707031 1232.578125 325.554688 1237.777344 C 326.398438 1242.972656 327.097656 1248.191406 327.648438 1253.429688 C 328.195312 1258.671875 328.597656 1263.917969 328.847656 1269.179688 C 329.097656 1274.441406 329.199219 1279.707031 329.152344 1284.972656 C 329.101562 1290.242188 328.90625 1295.5 328.558594 1300.757812 C 328.210938 1306.011719 327.714844 1311.253906 327.070312 1316.484375 C 326.425781 1321.710938 325.628906 1326.914062 324.691406 1332.097656 C 330.574219 1332.519531 336.464844 1332.792969 342.363281 1332.914062 C 348.261719 1333.035156 354.15625 1333.007812 360.054688 1332.832031 C 365.953125 1332.652344 371.839844 1332.328125 377.71875 1331.851562 C 383.597656 1331.375 389.464844 1330.746094 395.3125 1329.972656 C 401.160156 1329.199219 406.984375 1328.277344 412.785156 1327.203125 C 418.585938 1326.132812 424.355469 1324.917969 430.097656 1323.550781 C 435.835938 1322.1875 441.535156 1320.679688 447.199219 1319.023438 C 452.863281 1317.371094 458.476562 1315.574219 464.050781 1313.636719 C 469.621094 1311.695312 475.140625 1309.617188 480.605469 1307.394531 C 486.070312 1305.175781 491.476562 1302.820312 496.820312 1300.324219 C 502.167969 1297.828125 507.445312 1295.199219 512.65625 1292.4375 C 517.867188 1289.675781 523.007812 1286.78125 528.070312 1283.757812 C 533.136719 1280.734375 538.121094 1277.582031 543.027344 1274.304688 C 547.929688 1271.027344 552.75 1267.628906 557.480469 1264.105469 C 562.210938 1260.582031 566.851562 1256.941406 571.398438 1253.183594 C 575.941406 1249.425781 580.390625 1245.554688 584.742188 1241.570312 L 349.191406 1006.492188 Z M 258.394531 1097.121094 " fill-opacity="1" fill-rule="nonzero"/><path fill="#ffffff" d="M 974.882812 1341.738281 C 974.441406 1342.039062 974.039062 1342.378906 973.667969 1342.757812 C 973.296875 1343.140625 972.96875 1343.554688 972.675781 1344 C 972.386719 1344.445312 972.144531 1344.914062 971.949219 1345.410156 C 971.75 1345.902344 971.605469 1346.410156 971.507812 1346.933594 C 971.410156 1347.453125 971.367188 1347.980469 971.375 1348.511719 C 971.382812 1349.042969 971.441406 1349.570312 971.550781 1350.089844 C 971.664062 1350.609375 971.824219 1351.113281 972.035156 1351.601562 C 972.246094 1352.089844 972.5 1352.550781 972.800781 1352.988281 C 973.742188 1354.347656 974.75 1355.65625 975.820312 1356.917969 C 976.890625 1358.175781 978.019531 1359.382812 979.207031 1360.53125 C 980.394531 1361.679688 981.636719 1362.769531 982.929688 1363.796875 C 984.222656 1364.824219 985.566406 1365.785156 986.953125 1366.683594 C 988.34375 1367.578125 989.773438 1368.40625 991.242188 1369.160156 C 992.710938 1369.917969 994.214844 1370.601562 995.753906 1371.210938 C 997.289062 1371.820312 998.851562 1372.351562 1000.441406 1372.808594 C 1002.03125 1373.265625 1003.636719 1373.640625 1005.261719 1373.941406 C 1006.886719 1374.238281 1008.523438 1374.457031 1010.171875 1374.59375 C 1011.820312 1374.734375 1013.46875 1374.792969 1015.121094 1374.769531 C 1016.773438 1374.746094 1018.421875 1374.640625 1020.066406 1374.457031 C 1021.707031 1374.273438 1023.339844 1374.007812 1024.953125 1373.664062 C 1026.570312 1373.320312 1028.167969 1372.898438 1029.742188 1372.394531 C 1031.320312 1371.894531 1032.867188 1371.320312 1034.382812 1370.667969 C 1035.902344 1370.015625 1037.386719 1369.289062 1038.835938 1368.492188 C 1040.28125 1367.695312 1041.6875 1366.828125 1043.050781 1365.894531 L 1089.90625 1333.683594 C 1093.09375 1331.480469 1095.988281 1328.949219 1098.589844 1326.082031 C 1101.191406 1323.214844 1103.4375 1320.089844 1105.320312 1316.707031 L 1052.730469 1288.226562 Z M 974.882812 1341.738281 " fill-opacity="1" fill-rule="nonzero"/><path fill="#ffffff" d="M 1023.40625 1272.351562 L 938.421875 1226.332031 L 987.3125 1297.164062 Z M 1023.40625 1272.351562 " fill-opacity="1" fill-rule="nonzero"/><path fill="#ffffff" d="M 1260.507812 894.808594 L 920.945312 916.730469 L 905.597656 988.277344 L 1245.109375 1013.199219 C 1249.636719 1013.515625 1254.097656 1013.121094 1258.5 1012.011719 C 1262.898438 1010.902344 1267.015625 1009.136719 1270.851562 1006.710938 L 1359.097656 950.472656 L 1298.863281 905.875 C 1296.125 903.847656 1293.226562 902.082031 1290.171875 900.570312 C 1287.121094 899.0625 1283.957031 897.832031 1280.683594 896.890625 C 1277.410156 895.945312 1274.078125 895.296875 1270.6875 894.949219 C 1267.300781 894.597656 1263.90625 894.550781 1260.507812 894.808594 Z M 1260.507812 894.808594 " fill-opacity="1" fill-rule="nonzero"/><path fill="#ffffff" d="M 1327.703125 215.8125 C 1324.058594 208.875 1319.953125 202.21875 1315.386719 195.847656 C 1310.820312 189.480469 1305.835938 183.453125 1300.433594 177.777344 C 1295.027344 172.097656 1289.257812 166.820312 1283.125 161.941406 C 1276.988281 157.0625 1270.546875 152.632812 1263.796875 148.648438 L 1242.003906 195.824219 L 1320.296875 231.835938 Z M 1327.703125 215.8125 " fill-opacity="1" fill-rule="nonzero"/><path fill="#ffffff" d="M 1205.265625 1203.890625 L 884.304688 1087.542969 L 869.753906 1155.378906 L 1168.03125 1316.90625 C 1171.226562 1318.640625 1174.554688 1320.058594 1178.019531 1321.15625 C 1181.484375 1322.253906 1185.019531 1323.015625 1188.628906 1323.4375 C 1192.238281 1323.863281 1195.855469 1323.9375 1199.480469 1323.671875 C 1203.105469 1323.402344 1206.671875 1322.792969 1210.179688 1321.84375 L 1283.78125 1302.039062 L 1225.304688 1219.179688 C 1222.828125 1215.664062 1219.882812 1212.601562 1216.464844 1209.992188 C 1213.046875 1207.382812 1209.3125 1205.351562 1205.265625 1203.890625 Z M 1205.265625 1203.890625 " fill-opacity="1" fill-rule="nonzero"/><path fill="#ffffff" d="M 1248.121094 1042.984375 C 1246.394531 1042.984375 1244.671875 1042.921875 1242.949219 1042.796875 L 899.324219 1017.5625 L 890.601562 1058.234375 L 1215.40625 1175.972656 C 1218.570312 1177.132812 1221.636719 1178.503906 1224.609375 1180.089844 L 1347.136719 1128.328125 L 1258.890625 1042.144531 C 1255.320312 1042.695312 1251.730469 1042.976562 1248.121094 1042.984375 Z M 1248.121094 1042.984375 " fill-opacity="1" fill-rule="nonzero"/><path fill="#ffffff" d="M 798.074219 1136.238281 L 847.5625 904.734375 L 891.066406 914.027344 L 841.578125 1145.535156 Z M 798.074219 1136.238281 " fill-opacity="1" fill-rule="nonzero"/><path fill="#ffffff" d="M 938.527344 885.84375 L 997.527344 758.089844 C 988.429688 755.152344 979.535156 751.691406 970.84375 747.699219 C 962.15625 743.683594 953.726562 739.175781 945.558594 734.183594 L 877.820312 880.84375 L 909.890625 887.695312 Z M 938.527344 885.84375 " fill-opacity="1" fill-rule="nonzero"/><path fill="#ffffff" d="M 777.367188 871.59375 L 773.40625 865.855469 C 771.539062 863.152344 769.796875 860.367188 768.183594 857.507812 C 766.570312 854.644531 765.09375 851.714844 763.75 848.71875 C 762.40625 845.71875 761.199219 842.667969 760.136719 839.558594 C 759.074219 836.449219 758.152344 833.300781 757.378906 830.109375 C 756.605469 826.917969 755.976562 823.695312 755.496094 820.445312 C 755.015625 817.195312 754.6875 813.929688 754.507812 810.648438 C 754.328125 807.371094 754.296875 804.089844 754.417969 800.804688 C 754.539062 797.523438 754.8125 794.253906 755.234375 790.996094 C 755.84375 786.265625 756.019531 781.523438 755.757812 776.761719 C 755.496094 772 754.804688 767.304688 753.679688 762.671875 C 752.554688 758.039062 751.015625 753.546875 749.066406 749.195312 C 747.113281 744.84375 744.785156 740.707031 742.070312 736.789062 L 350.371094 169.3125 C 349.613281 168.21875 348.828125 167.144531 348.015625 166.089844 C 347.207031 165.035156 346.371094 164 345.511719 162.988281 C 344.648438 161.972656 343.765625 160.980469 342.855469 160.011719 C 341.945312 159.039062 341.011719 158.09375 340.054688 157.167969 C 339.101562 156.242188 338.121094 155.34375 337.121094 154.464844 C 336.121094 153.589844 335.101562 152.738281 334.058594 151.910156 C 333.015625 151.082031 331.957031 150.28125 330.875 149.507812 C 329.792969 148.730469 328.695312 147.984375 327.578125 147.261719 C 326.457031 146.539062 325.324219 145.847656 324.171875 145.179688 C 323.019531 144.515625 321.851562 143.878906 320.671875 143.269531 C 319.488281 142.660156 318.289062 142.082031 317.078125 141.53125 C 315.867188 140.980469 314.644531 140.460938 313.40625 139.972656 C 312.171875 139.480469 310.921875 139.019531 309.664062 138.59375 C 308.40625 138.164062 307.136719 137.765625 305.855469 137.398438 C 304.578125 137.03125 303.292969 136.695312 301.996094 136.390625 C 300.703125 136.085938 299.398438 135.816406 298.089844 135.574219 C 296.785156 135.335938 295.46875 135.125 294.152344 134.949219 C 292.832031 134.773438 291.511719 134.628906 290.183594 134.519531 C 288.859375 134.40625 287.53125 134.328125 286.203125 134.28125 C 284.871094 134.234375 283.542969 134.222656 282.210938 134.242188 C 280.882812 134.257812 279.554688 134.3125 278.226562 134.394531 C 276.898438 134.476562 275.574219 134.59375 274.25 134.742188 C 272.929688 134.890625 271.613281 135.070312 270.300781 135.285156 C 268.984375 135.5 267.679688 135.742188 266.378906 136.019531 C 265.078125 136.296875 263.78125 136.605469 262.496094 136.945312 C 261.210938 137.285156 259.933594 137.65625 258.667969 138.0625 C 257.398438 138.464844 256.140625 138.898438 254.894531 139.359375 C 253.648438 139.824219 252.414062 140.320312 251.191406 140.84375 C 249.96875 141.371094 248.757812 141.925781 247.566406 142.507812 C 246.371094 143.089844 245.1875 143.703125 244.023438 144.347656 C 242.859375 144.988281 241.710938 145.65625 240.578125 146.355469 C 239.445312 147.054688 238.328125 147.777344 237.234375 148.53125 C 236.136719 149.28125 235.0625 150.0625 234.003906 150.867188 C 232.949219 151.671875 231.910156 152.5 230.894531 153.355469 C 229.878906 154.210938 228.882812 155.09375 227.910156 155.996094 C 226.9375 156.902344 225.988281 157.828125 225.0625 158.78125 C 224.132812 159.734375 223.230469 160.707031 222.351562 161.703125 C 221.472656 162.699219 220.617188 163.714844 219.789062 164.753906 C 218.960938 165.789062 218.15625 166.847656 217.378906 167.925781 C 216.601562 169.003906 215.851562 170.097656 215.128906 171.210938 C 214.40625 172.324219 213.707031 173.457031 213.042969 174.605469 C 212.375 175.753906 211.734375 176.917969 211.125 178.097656 C 210.511719 179.277344 209.933594 180.472656 209.378906 181.679688 C 208.828125 182.886719 208.304688 184.109375 207.816406 185.34375 C 207.324219 186.578125 206.863281 187.824219 206.429688 189.078125 C 206 190.335938 205.601562 191.601562 205.234375 192.878906 C 204.863281 194.15625 204.527344 195.4375 204.222656 196.730469 C 203.917969 198.023438 203.644531 199.324219 203.402344 200.628906 C 203.164062 201.9375 202.953125 203.25 202.777344 204.566406 C 202.601562 205.882812 202.457031 207.203125 202.34375 208.523438 C 202.234375 209.847656 202.152344 211.175781 202.105469 212.5 C 202.058594 213.828125 202.046875 215.15625 202.066406 216.484375 C 202.082031 217.8125 202.136719 219.140625 202.21875 220.464844 C 202.304688 221.792969 202.417969 223.113281 202.570312 224.433594 C 202.71875 225.753906 202.898438 227.070312 203.113281 228.378906 C 203.328125 229.691406 203.574219 230.996094 203.851562 232.296875 C 204.128906 233.59375 204.4375 234.886719 204.777344 236.167969 C 205.121094 237.453125 205.492188 238.726562 205.898438 239.992188 C 206.300781 241.257812 206.738281 242.511719 207.203125 243.757812 C 207.667969 245 208.164062 246.234375 208.691406 247.453125 C 209.21875 248.671875 209.773438 249.878906 210.359375 251.070312 C 210.945312 252.261719 211.558594 253.441406 212.203125 254.601562 C 212.847656 255.765625 213.519531 256.910156 214.21875 258.039062 C 214.917969 259.167969 215.644531 260.277344 216.398438 261.371094 L 469.398438 627.886719 C 477.027344 630.433594 484.566406 633.222656 492.019531 636.253906 C 499.46875 639.285156 506.816406 642.550781 514.058594 646.050781 C 521.300781 649.546875 528.421875 653.277344 535.425781 657.230469 C 542.429688 661.183594 549.300781 665.359375 556.039062 669.75 C 562.777344 674.144531 569.367188 678.75 575.8125 683.5625 C 582.253906 688.375 588.539062 693.390625 594.660156 698.605469 C 600.785156 703.820312 606.734375 709.226562 612.511719 714.820312 C 618.289062 720.417969 623.882812 726.191406 629.292969 732.144531 C 634.703125 738.097656 639.914062 744.214844 644.933594 750.5 C 649.953125 756.785156 654.765625 763.226562 659.371094 769.816406 C 663.976562 776.410156 668.367188 783.144531 672.546875 790.015625 C 676.722656 796.890625 680.675781 803.886719 684.40625 811.011719 C 688.132812 818.140625 691.632812 825.375 694.898438 832.726562 C 698.167969 840.074219 701.195312 847.519531 703.988281 855.0625 C 706.777344 862.605469 709.328125 870.226562 711.632812 877.933594 C 713.933594 885.636719 715.992188 893.410156 717.800781 901.246094 C 721.921875 897.410156 726.300781 893.890625 730.929688 890.683594 C 735.5625 887.480469 740.398438 884.621094 745.4375 882.113281 C 750.480469 879.601562 755.675781 877.46875 761.023438 875.707031 C 766.375 873.945312 771.820312 872.574219 777.367188 871.59375 Z M 268.109375 235.273438 C 267.296875 235.8125 266.441406 236.269531 265.539062 236.640625 C 264.640625 237.011719 263.710938 237.292969 262.753906 237.480469 C 261.796875 237.667969 260.832031 237.761719 259.855469 237.761719 C 258.882812 237.761719 257.917969 237.664062 256.960938 237.472656 C 256.003906 237.28125 255.078125 236.996094 254.175781 236.621094 C 253.277344 236.246094 252.421875 235.789062 251.613281 235.246094 C 250.800781 234.703125 250.054688 234.085938 249.363281 233.394531 C 248.675781 232.707031 248.0625 231.957031 247.523438 231.144531 L 244.144531 226.046875 C 243.601562 225.234375 243.148438 224.378906 242.773438 223.476562 C 242.402344 222.578125 242.125 221.648438 241.933594 220.691406 C 241.746094 219.734375 241.652344 218.769531 241.65625 217.796875 C 241.65625 216.820312 241.753906 215.855469 241.945312 214.898438 C 242.136719 213.945312 242.417969 213.015625 242.792969 212.117188 C 243.167969 211.214844 243.628906 210.363281 244.171875 209.550781 C 244.714844 208.742188 245.328125 207.992188 246.019531 207.304688 C 246.710938 206.617188 247.460938 206.003906 248.273438 205.464844 C 249.085938 204.921875 249.941406 204.46875 250.84375 204.097656 C 251.742188 203.722656 252.671875 203.445312 253.628906 203.257812 C 254.585938 203.066406 255.550781 202.972656 256.527344 202.976562 C 257.5 202.976562 258.464844 203.074219 259.421875 203.265625 C 260.378906 203.457031 261.304688 203.742188 262.207031 204.113281 C 263.105469 204.488281 263.960938 204.949219 264.769531 205.492188 C 265.582031 206.035156 266.328125 206.648438 267.019531 207.339844 C 267.707031 208.03125 268.320312 208.78125 268.859375 209.59375 L 272.25 214.691406 C 272.792969 215.503906 273.246094 216.359375 273.617188 217.261719 C 273.988281 218.160156 274.269531 219.089844 274.457031 220.046875 C 274.644531 221.003906 274.738281 221.96875 274.738281 222.945312 C 274.734375 223.917969 274.636719 224.882812 274.445312 225.839844 C 274.253906 226.796875 273.96875 227.722656 273.59375 228.625 C 273.21875 229.523438 272.757812 230.378906 272.214844 231.1875 C 271.671875 231.996094 271.054688 232.746094 270.363281 233.433594 C 269.671875 234.121094 268.921875 234.734375 268.109375 235.273438 Z M 425.195312 471.210938 C 424.382812 471.75 423.527344 472.207031 422.625 472.578125 C 421.722656 472.949219 420.792969 473.230469 419.839844 473.417969 C 418.882812 473.609375 417.917969 473.699219 416.941406 473.699219 C 415.964844 473.699219 415 473.601562 414.046875 473.410156 C 413.089844 473.21875 412.160156 472.933594 411.261719 472.558594 C 410.359375 472.1875 409.507812 471.726562 408.695312 471.183594 C 407.886719 470.640625 407.136719 470.023438 406.449219 469.335938 C 405.761719 468.644531 405.148438 467.894531 404.605469 467.082031 L 277.617188 276.351562 C 277.0625 275.539062 276.589844 274.679688 276.203125 273.777344 C 275.820312 272.871094 275.527344 271.9375 275.324219 270.976562 C 275.125 270.011719 275.023438 269.039062 275.015625 268.054688 C 275.007812 267.074219 275.097656 266.097656 275.285156 265.132812 C 275.472656 264.167969 275.753906 263.230469 276.125 262.320312 C 276.5 261.410156 276.957031 260.546875 277.503906 259.726562 C 278.046875 258.910156 278.667969 258.152344 279.363281 257.457031 C 280.058594 256.761719 280.816406 256.140625 281.636719 255.597656 C 282.453125 255.050781 283.320312 254.59375 284.230469 254.21875 C 285.140625 253.847656 286.078125 253.566406 287.042969 253.378906 C 288.007812 253.195312 288.984375 253.105469 289.964844 253.109375 C 290.949219 253.117188 291.921875 253.222656 292.886719 253.421875 C 293.847656 253.621094 294.785156 253.914062 295.6875 254.300781 C 296.59375 254.6875 297.449219 255.15625 298.261719 255.714844 C 299.074219 256.269531 299.820312 256.902344 300.507812 257.605469 C 301.191406 258.3125 301.800781 259.078125 302.335938 259.902344 L 429.328125 450.632812 C 429.867188 451.441406 430.324219 452.296875 430.695312 453.199219 C 431.066406 454.101562 431.347656 455.027344 431.535156 455.984375 C 431.722656 456.941406 431.816406 457.90625 431.816406 458.882812 C 431.816406 459.855469 431.71875 460.820312 431.527344 461.777344 C 431.335938 462.730469 431.050781 463.660156 430.675781 464.558594 C 430.304688 465.457031 429.84375 466.3125 429.300781 467.121094 C 428.757812 467.933594 428.144531 468.679688 427.453125 469.367188 C 426.761719 470.058594 426.011719 470.671875 425.199219 471.210938 Z M 425.195312 471.210938 " fill-opacity="1" fill-rule="nonzero"/><path fill="#ffffff" d="M 768.675781 1131.296875 L 818.457031 899.273438 C 775.007812 894.800781 734.511719 913.578125 724.917969 943.921875 C 726.433594 957.746094 727.199219 971.613281 727.203125 985.519531 C 727.226562 1005.5625 725.664062 1025.480469 722.515625 1045.273438 C 719.367188 1065.066406 714.671875 1084.484375 708.429688 1103.527344 C 724.996094 1125.484375 752.347656 1129.675781 768.675781 1131.296875 Z M 768.675781 1131.296875 " fill-opacity="1" fill-rule="nonzero"/><path fill="#ffffff" d="M 1117.675781 394.210938 L 1039.386719 358.199219 L 1009.382812 423.164062 L 1087.671875 459.179688 Z M 1117.675781 394.210938 " fill-opacity="1" fill-rule="nonzero"/><path fill="#ffffff" d="M 237.367188 1076.148438 L 328.179688 985.519531 L 92.621094 750.429688 C 85.304688 758.335938 78.371094 766.566406 71.824219 775.121094 C 65.277344 783.675781 59.144531 792.519531 53.425781 801.652344 C 47.707031 810.78125 42.429688 820.160156 37.589844 829.785156 C 32.753906 839.410156 28.375 849.238281 24.457031 859.273438 C 20.539062 869.308594 17.101562 879.507812 14.140625 889.863281 C 11.179688 900.222656 8.710938 910.695312 6.730469 921.285156 C 4.75 931.875 3.273438 942.53125 2.292969 953.261719 C 1.3125 963.988281 0.839844 974.738281 0.867188 985.511719 C 0.867188 993.71875 1.152344 1001.878906 1.722656 1009.992188 C 6.917969 1009.046875 12.136719 1008.25 17.375 1007.601562 C 22.617188 1006.953125 27.871094 1006.453125 33.136719 1006.105469 C 38.40625 1005.753906 43.679688 1005.550781 48.957031 1005.5 C 54.238281 1005.449219 59.515625 1005.546875 64.789062 1005.792969 C 70.0625 1006.042969 75.324219 1006.4375 80.578125 1006.984375 C 85.828125 1007.53125 91.058594 1008.226562 96.269531 1009.066406 C 101.484375 1009.910156 106.667969 1010.898438 111.824219 1012.035156 C 116.980469 1013.171875 122.097656 1014.453125 127.179688 1015.882812 C 132.265625 1017.308594 137.304688 1018.878906 142.296875 1020.59375 C 147.292969 1022.304688 152.234375 1024.15625 157.121094 1026.152344 C 162.011719 1028.144531 166.839844 1030.273438 171.605469 1032.539062 C 176.375 1034.808594 181.074219 1037.207031 185.707031 1039.742188 C 190.339844 1042.273438 194.894531 1044.9375 199.375 1047.726562 C 203.855469 1050.519531 208.253906 1053.4375 212.570312 1056.476562 C 216.886719 1059.519531 221.113281 1062.679688 225.246094 1065.960938 C 229.382812 1069.242188 233.421875 1072.636719 237.367188 1076.148438 Z M 237.367188 1076.148438 " fill-opacity="1" fill-rule="nonzero"/><path fill="#ffffff" d="M 5.046875 1039.589844 C 6.355469 1047.996094 7.96875 1056.34375 9.894531 1064.628906 C 11.820312 1072.914062 14.050781 1081.113281 16.582031 1089.234375 C 19.117188 1097.355469 21.945312 1105.371094 25.074219 1113.28125 C 28.203125 1121.191406 31.617188 1128.972656 35.320312 1136.632812 C 39.027344 1144.289062 43.011719 1151.796875 47.269531 1159.160156 C 51.53125 1166.523438 56.0625 1173.714844 60.855469 1180.742188 C 65.648438 1187.769531 70.699219 1194.609375 76 1201.261719 C 81.300781 1207.914062 86.84375 1214.359375 92.621094 1220.601562 L 216.339844 1097.128906 C 212.808594 1093.980469 209.191406 1090.9375 205.488281 1087.996094 C 201.78125 1085.058594 197.992188 1082.226562 194.125 1079.507812 C 190.253906 1076.785156 186.308594 1074.179688 182.289062 1071.6875 C 178.269531 1069.195312 174.179688 1066.820312 170.023438 1064.566406 C 165.863281 1062.308594 161.644531 1060.175781 157.363281 1058.164062 C 153.082031 1056.152344 148.746094 1054.265625 144.355469 1052.503906 C 139.96875 1050.742188 135.53125 1049.109375 131.042969 1047.605469 C 126.558594 1046.097656 122.035156 1044.726562 117.472656 1043.484375 C 112.90625 1042.238281 108.3125 1041.128906 103.683594 1040.152344 C 99.054688 1039.175781 94.402344 1038.332031 89.722656 1037.625 C 85.046875 1036.917969 80.351562 1036.34375 75.640625 1035.910156 C 70.933594 1035.472656 66.214844 1035.171875 61.484375 1035.007812 C 56.757812 1034.84375 52.03125 1034.816406 47.300781 1034.925781 C 42.570312 1035.039062 37.847656 1035.285156 33.132812 1035.667969 C 28.417969 1036.050781 23.71875 1036.566406 19.035156 1037.222656 C 14.347656 1037.878906 9.6875 1038.667969 5.046875 1039.589844 Z M 5.046875 1039.589844 " fill-opacity="1" fill-rule="nonzero"/><path fill="#ffffff" d="M 440.488281 873.4375 C 436.949219 869.539062 433.523438 865.546875 430.214844 861.453125 C 426.90625 857.359375 423.71875 853.171875 420.652344 848.894531 C 417.582031 844.617188 414.644531 840.253906 411.828125 835.808594 C 409.011719 831.359375 406.328125 826.835938 403.773438 822.234375 C 401.21875 817.632812 398.796875 812.960938 396.515625 808.21875 C 394.230469 803.476562 392.082031 798.675781 390.074219 793.808594 C 388.066406 788.941406 386.203125 784.023438 384.480469 779.050781 C 382.753906 774.078125 381.175781 769.058594 379.742188 763.996094 C 378.308594 758.929688 377.023438 753.832031 375.882812 748.691406 C 374.742188 743.554688 373.753906 738.386719 372.910156 733.191406 C 372.070312 727.996094 371.378906 722.78125 370.839844 717.546875 C 370.296875 712.308594 369.910156 707.0625 369.671875 701.804688 C 369.433594 696.546875 369.347656 691.289062 369.414062 686.023438 C 369.480469 680.761719 369.699219 675.507812 370.066406 670.257812 C 370.4375 665.007812 370.957031 659.769531 371.628906 654.550781 C 372.300781 649.332031 373.121094 644.132812 374.09375 638.960938 C 365.804688 638.367188 357.507812 638.070312 349.195312 638.070312 C 338.410156 638.050781 327.652344 638.535156 316.914062 639.515625 C 306.175781 640.5 295.507812 641.976562 284.910156 643.953125 C 274.308594 645.925781 263.824219 648.390625 253.453125 651.339844 C 243.082031 654.289062 232.871094 657.714844 222.820312 661.617188 C 212.769531 665.515625 202.917969 669.875 193.273438 674.691406 C 183.625 679.507812 174.226562 684.761719 165.066406 690.453125 C 155.910156 696.144531 147.039062 702.246094 138.449219 708.761719 C 129.859375 715.28125 121.589844 722.179688 113.644531 729.464844 L 349.195312 964.539062 Z M 440.488281 873.4375 " fill-opacity="1" fill-rule="nonzero"/><path fill="#ffffff" d="M 584.742188 729.472656 C 578.480469 723.726562 572.019531 718.21875 565.351562 712.949219 C 558.6875 707.675781 551.835938 702.660156 544.800781 697.890625 C 537.765625 693.125 530.566406 688.625 523.199219 684.386719 C 515.835938 680.148438 508.324219 676.1875 500.664062 672.503906 C 493.007812 668.820312 485.226562 665.417969 477.320312 662.308594 C 469.410156 659.195312 461.398438 656.378906 453.285156 653.855469 C 445.171875 651.332031 436.972656 649.109375 428.695312 647.1875 C 420.417969 645.265625 412.082031 643.652344 403.683594 642.347656 C 402.777344 646.964844 402.003906 651.605469 401.367188 656.269531 C 400.730469 660.933594 400.226562 665.609375 399.859375 670.304688 C 399.492188 674.996094 399.257812 679.695312 399.164062 684.402344 C 399.066406 689.109375 399.109375 693.8125 399.285156 698.515625 C 399.460938 703.21875 399.773438 707.914062 400.21875 712.601562 C 400.667969 717.285156 401.25 721.953125 401.96875 726.605469 C 402.683594 731.257812 403.535156 735.886719 404.523438 740.488281 C 405.507812 745.089844 406.625 749.660156 407.875 754.199219 C 409.121094 758.738281 410.5 763.234375 412.011719 767.695312 C 413.519531 772.152344 415.15625 776.566406 416.921875 780.929688 C 418.6875 785.292969 420.574219 789.601562 422.589844 793.855469 C 424.601562 798.109375 426.738281 802.304688 428.992188 806.433594 C 431.25 810.566406 433.625 814.628906 436.113281 818.625 C 438.605469 822.617188 441.210938 826.535156 443.925781 830.378906 C 446.644531 834.222656 449.472656 837.984375 452.40625 841.664062 C 455.339844 845.347656 458.378906 848.9375 461.523438 852.441406 Z M 584.742188 729.472656 " fill-opacity="1" fill-rule="nonzero"/><path fill="#ffffff" d="M 693.277344 931.070312 C 691.964844 922.679688 690.34375 914.351562 688.414062 906.085938 C 686.484375 897.816406 684.253906 889.632812 681.71875 881.527344 C 679.183594 873.425781 676.351562 865.425781 673.222656 857.535156 C 670.097656 849.640625 666.683594 841.871094 662.980469 834.230469 C 659.277344 826.589844 655.300781 819.097656 651.042969 811.75 C 646.789062 804.402344 642.265625 797.222656 637.476562 790.210938 C 632.691406 783.199219 627.648438 776.371094 622.355469 769.734375 C 617.0625 763.09375 611.535156 756.660156 605.765625 750.429688 L 482.53125 873.40625 C 486.054688 876.546875 489.660156 879.582031 493.359375 882.515625 C 497.054688 885.449219 500.832031 888.273438 504.691406 890.984375 C 508.550781 893.699219 512.484375 896.300781 516.496094 898.789062 C 520.503906 901.277344 524.582031 903.648438 528.730469 905.902344 C 532.875 908.152344 537.082031 910.285156 541.351562 912.292969 C 545.621094 914.304688 549.945312 916.191406 554.324219 917.949219 C 558.699219 919.710938 563.125 921.34375 567.597656 922.847656 C 572.070312 924.355469 576.582031 925.730469 581.132812 926.976562 C 585.683594 928.222656 590.269531 929.335938 594.882812 930.316406 C 599.5 931.296875 604.140625 932.144531 608.804688 932.855469 C 613.46875 933.570312 618.148438 934.148438 622.847656 934.59375 C 627.546875 935.035156 632.253906 935.34375 636.96875 935.515625 C 641.683594 935.6875 646.402344 935.722656 651.117188 935.625 C 655.835938 935.523438 660.546875 935.289062 665.25 934.917969 C 669.957031 934.546875 674.644531 934.039062 679.320312 933.398438 C 683.996094 932.753906 688.648438 931.980469 693.277344 931.070312 Z M 693.277344 931.070312 " fill-opacity="1" fill-rule="nonzero"/><path fill="#ffffff" d="M 924.335938 536.5 L 927.507812 529.632812 L 921.398438 526.824219 C 922.3125 530.078125 923.292969 533.304688 924.335938 536.5 Z M 924.335938 536.5 " fill-opacity="1" fill-rule="nonzero"/><path fill="#ffffff" d="M 1161.789062 645.859375 C 1164.933594 644.558594 1168.066406 643.179688 1171.195312 641.726562 L 1165.011719 638.882812 Z M 1161.789062 645.859375 " fill-opacity="1" fill-rule="nonzero"/><path fill="#ffffff" d="M 914.195312 412.0625 C 910.683594 438.277344 910.621094 464.5 914 490.734375 L 939.953125 502.671875 L 969.945312 437.707031 Z M 914.195312 412.0625 " fill-opacity="1" fill-rule="nonzero"/><path fill="#ffffff" d="M 1030.882812 652.953125 C 1038.3125 655.472656 1045.878906 657.472656 1053.582031 658.949219 C 1061.285156 660.429688 1069.054688 661.375 1076.886719 661.785156 C 1084.71875 662.195312 1092.546875 662.070312 1100.359375 661.402344 C 1108.175781 660.738281 1115.910156 659.539062 1123.5625 657.808594 L 1138.035156 626.476562 L 1059.746094 590.460938 Z M 1030.882812 652.953125 " fill-opacity="1" fill-rule="nonzero"/><path fill="#ffffff" d="M 954.480469 542.042969 L 940.042969 573.304688 C 943.683594 580.246094 947.785156 586.90625 952.347656 593.28125 C 956.910156 599.652344 961.894531 605.683594 967.292969 611.367188 C 972.695312 617.046875 978.460938 622.332031 984.59375 627.214844 C 990.730469 632.097656 997.171875 636.535156 1003.917969 640.523438 L 1032.769531 578.054688 Z M 954.480469 542.042969 " fill-opacity="1" fill-rule="nonzero"/><path fill="#ffffff" d="M 1177.445312 611.925781 L 1203.359375 623.851562 C 1225.5 609.335938 1245.4375 592.25 1263.164062 572.589844 L 1207.453125 546.960938 Z M 1177.445312 611.925781 " fill-opacity="1" fill-rule="nonzero"/><path fill="#ffffff" d="M 1102.195312 498.539062 L 1072.195312 563.507812 L 1150.484375 599.519531 L 1180.488281 534.554688 Z M 1102.195312 498.539062 " fill-opacity="1" fill-rule="nonzero"/><g clip-path="url(#be2e8cc689)"><path fill="#ffffff" d="M 1284.535156 68.492188 C 1277.351562 65.207031 1270.015625 62.316406 1262.519531 59.828125 C 1255.023438 57.339844 1247.417969 55.261719 1239.695312 53.597656 C 1231.976562 51.933594 1224.1875 50.695312 1216.332031 49.875 C 1208.476562 49.054688 1200.601562 48.664062 1192.703125 48.699219 C 1074.667969 48.699219 948.855469 137.519531 883.335938 279.378906 C 836.183594 381.472656 828.425781 492.273438 862.046875 583.386719 C 885.78125 647.683594 927.695312 695.179688 983.257812 720.738281 C 1121.433594 784.304688 1301.402344 689.6875 1384.457031 509.855469 C 1431.609375 407.757812 1439.363281 296.957031 1405.746094 205.847656 C 1382.011719 141.542969 1340.097656 94.046875 1284.535156 68.492188 Z M 1350.007812 494.042969 C 1293.886719 615.539062 1185.863281 691.539062 1084.292969 691.539062 C 1070.5625 691.601562 1056.988281 690.183594 1043.566406 687.292969 C 1030.144531 684.398438 1017.191406 680.09375 1004.710938 674.382812 C 956.367188 652.144531 919.980469 611.03125 899.480469 555.488281 C 870.710938 477.539062 877.378906 382.660156 917.789062 295.175781 C 989.023438 140.929688 1143.941406 60.027344 1263.085938 114.835938 C 1311.429688 137.070312 1347.816406 178.183594 1368.316406 233.722656 C 1397.085938 311.671875 1390.414062 406.554688 1350.007812 494.039062 Z M 1350.007812 494.042969 " fill-opacity="1" fill-rule="nonzero"/></g><path fill="#ffffff" d="M 1334.828125 271.195312 L 1304.835938 336.164062 L 1355.4375 359.441406 C 1357.59375 332.164062 1355.898438 305.128906 1350.351562 278.332031 Z M 1334.828125 271.195312 " fill-opacity="1" fill-rule="nonzero"/><path fill="#ffffff" d="M 1262.371094 428.085938 L 1332.15625 460.183594 C 1341.011719 437.570312 1347.503906 414.300781 1351.636719 390.375 L 1292.382812 363.121094 Z M 1262.371094 428.085938 " fill-opacity="1" fill-rule="nonzero"/><path fill="#ffffff" d="M 1219.910156 520.007812 L 1282.78125 548.925781 C 1297.320312 529.664062 1309.824219 509.160156 1320.292969 487.414062 L 1249.917969 455.054688 Z M 1219.910156 520.007812 " fill-opacity="1" fill-rule="nonzero"/><path fill="#ffffff" d="M 1160.132812 302.292969 L 1081.839844 266.277344 L 1051.835938 331.242188 L 1130.125 367.257812 Z M 1160.132812 302.292969 " fill-opacity="1" fill-rule="nonzero"/><path fill="#ffffff" d="M 1307.847656 258.789062 L 1229.558594 222.777344 L 1199.554688 287.746094 L 1277.84375 323.757812 Z M 1307.847656 258.789062 " fill-opacity="1" fill-rule="nonzero"/><path fill="#ffffff" d="M 966.929688 515.085938 L 1045.21875 551.097656 L 1075.222656 486.132812 L 996.933594 450.121094 Z M 966.929688 515.085938 " fill-opacity="1" fill-rule="nonzero"/><path fill="#ffffff" d="M 1012.414062 345.777344 L 942.121094 313.445312 C 932.34375 335.496094 924.8125 358.289062 919.523438 381.820312 L 982.410156 410.746094 Z M 1012.414062 345.777344 " fill-opacity="1" fill-rule="nonzero"/><path fill="#ffffff" d="M 1265.394531 350.710938 L 1187.105469 314.699219 L 1157.101562 379.664062 L 1235.390625 415.675781 Z M 1265.394531 350.710938 " fill-opacity="1" fill-rule="nonzero"/><path fill="#ffffff" d="M 1236.808594 136.261719 C 1228.152344 133.25 1219.300781 130.988281 1210.261719 129.472656 C 1201.21875 127.957031 1192.117188 127.207031 1182.949219 127.230469 C 1169.851562 127.28125 1156.90625 128.6875 1144.105469 131.457031 L 1136.742188 147.402344 L 1215.03125 183.414062 Z M 1236.808594 136.261719 " fill-opacity="1" fill-rule="nonzero"/><path fill="#ffffff" d="M 1222.941406 442.628906 L 1144.652344 406.617188 L 1114.648438 471.585938 L 1192.9375 507.597656 Z M 1222.941406 442.628906 " fill-opacity="1" fill-rule="nonzero"/><path fill="#ffffff" d="M 1054.863281 253.871094 L 995.835938 226.730469 C 980.242188 245.371094 966.6875 265.390625 955.167969 286.792969 L 1024.859375 318.855469 Z M 1054.863281 253.871094 " fill-opacity="1" fill-rule="nonzero"/><path fill="#ffffff" d="M 1097.316406 161.945312 L 1081.949219 154.882812 C 1058.007812 168.144531 1036.351562 184.441406 1016.980469 203.769531 L 1067.3125 226.925781 Z M 1097.316406 161.945312 " fill-opacity="1" fill-rule="nonzero"/><path fill="#ffffff" d="M 1172.578125 275.335938 L 1202.582031 210.367188 L 1124.292969 174.355469 L 1094.289062 239.324219 Z M 1172.578125 275.335938 " fill-opacity="1" fill-rule="nonzero"/></svg>