<svg xmlns="http://www.w3.org/2000/svg" xmlns:xlink="http://www.w3.org/1999/xlink" width="1920" zoomAndPan="magnify" viewBox="0 0 1440 1439.999935" height="1920" preserveAspectRatio="xMidYMid meet" version="1.0"><path fill="#ffffff" d="M 527.171875 309.226562 L 524.5625 309.050781 C 467.945312 307.722656 423.382812 317.765625 390.882812 339.183594 C 361.976562 363.484375 356.027344 390.6875 373.03125 420.796875 C 383.15625 437.382812 400.234375 451.457031 424.273438 463.019531 L 753.535156 542.109375 L 785.964844 737.265625 C 717.335938 746.484375 664.914062 756.269531 628.695312 766.632812 C 592.507812 777.183594 569.488281 785.3125 559.640625 791.023438 C 555.546875 793.3125 555.554688 796.882812 559.667969 801.742188 C 618.953125 817.359375 784.949219 876.34375 1057.664062 978.695312 C 1059.914062 979.015625 1060.953125 978.304688 1060.785156 976.558594 L 944.429688 595.5625 L 901.832031 424.675781 C 898.128906 412.59375 893.601562 402.90625 888.257812 395.621094 L 879.625 386.492188 C 809.65625 366.003906 747.574219 349.535156 693.386719 337.085938 C 603.980469 318.058594 548.578125 308.769531 527.171875 309.226562 " fill-opacity="1" fill-rule="nonzero"/><path fill="#ffffff" d="M 1439.8125 852.929688 L 1439.585938 853.105469 C 1396 895.460938 1341.761719 931.675781 1276.875 961.75 C 1223.261719 984.964844 1170.207031 996.921875 1117.714844 997.621094 C 1071.226562 1000.636719 1021.609375 994.972656 968.875 980.632812 C 947.347656 974.601562 931.640625 969.703125 921.75 965.929688 L 787.066406 912.929688 C 725.363281 890.644531 681.6875 875.332031 656.042969 866.984375 C 613.574219 853.109375 577.304688 844.902344 547.234375 842.375 C 530.398438 839.910156 503.246094 840.644531 465.789062 844.578125 C 439.894531 847.242188 414.714844 851.949219 390.257812 858.699219 C 348.644531 869.855469 309.144531 888.96875 271.75 916.042969 C 249.023438 936.050781 235.421875 951 230.953125 960.886719 C 277.140625 940.984375 306.394531 929.082031 318.726562 925.1875 C 339.769531 918 361.28125 912.546875 383.253906 908.820312 C 435.441406 900.21875 487.066406 900.171875 538.128906 908.683594 C 558.65625 912.660156 581.347656 919.644531 606.207031 929.636719 L 788.449219 1009.601562 C 820.261719 1022.742188 846.773438 1032.480469 867.980469 1038.820312 C 939.90625 1061.097656 1007.554688 1070.84375 1070.933594 1068.066406 C 1150.628906 1063.769531 1219.75 1044.292969 1278.300781 1009.640625 C 1326.722656 983.765625 1380.5625 931.527344 1439.8125 852.929688 " fill-opacity="1" fill-rule="nonzero"/><path fill="#ffffff" d="M 478.285156 936.722656 L 475.734375 936.5625 C 434.355469 934.476562 388.054688 944.476562 336.835938 966.5625 C 325.066406 971.710938 312.441406 978.035156 298.96875 985.546875 L 173.832031 1062.1875 C 147.667969 1076.914062 128.921875 1086.375 117.585938 1090.574219 C 100.25 1096.734375 85.945312 1100.789062 74.667969 1102.742188 C 64.960938 1105.054688 43.539062 1107.0625 10.40625 1108.769531 C 7.050781 1109.148438 4.699219 1110.296875 3.339844 1112.214844 C 2.34375 1112.535156 1.175781 1112.503906 -0.164062 1112.117188 C 19.195312 1122.101562 43.054688 1128.1875 71.417969 1130.375 C 98.507812 1132.007812 125.980469 1128.589844 153.839844 1120.113281 L 182.183594 1110.621094 L 203.171875 1102.289062 L 331.378906 1043.726562 C 337.621094 1040.941406 345.199219 1037.945312 354.113281 1034.738281 C 388.355469 1023.363281 418.449219 1017.367188 444.386719 1016.757812 C 476.035156 1016.753906 496.011719 1017.023438 504.308594 1017.570312 C 518.714844 1018.515625 530.363281 1020.019531 539.253906 1022.074219 C 544.871094 1023.308594 555.417969 1026.445312 570.898438 1031.484375 L 724.457031 1083.171875 C 748.09375 1090.019531 774.820312 1096.335938 804.640625 1102.121094 C 858.125 1111.484375 903.921875 1113.832031 942.039062 1109.164062 C 942.523438 1108.90625 940.597656 1108.527344 936.25 1108.019531 C 927.96875 1103.808594 918.570312 1099.851562 908.058594 1096.144531 L 831.914062 1071.40625 C 829.777344 1070.914062 809.371094 1062.9375 770.695312 1047.480469 C 755.519531 1041.121094 744.546875 1036.332031 737.773438 1033.113281 L 609.582031 972.273438 C 586.550781 961.667969 571.660156 955.230469 564.917969 952.953125 C 542.285156 945.179688 513.40625 939.769531 478.285156 936.722656 " fill-opacity="1" fill-rule="nonzero"/><path fill="#ffffff" d="M 1391.386719 728.46875 L 1388.167969 751.847656 C 1377.375 798.648438 1352.824219 834.96875 1314.519531 860.804688 C 1275.960938 886.601562 1232.082031 895.089844 1182.886719 886.269531 C 1136.101562 875.472656 1099.796875 850.917969 1073.96875 812.59375 C 1065.703125 800.210938 1059.109375 786.890625 1054.191406 772.625 L 1048.265625 750.746094 C 1045.214844 735.761719 1044.226562 720.277344 1045.296875 704.296875 C 1049.957031 655.339844 1069.699219 615.71875 1104.523438 585.429688 C 1139.347656 555.140625 1181.3125 541.085938 1230.421875 543.273438 C 1279.355469 547.933594 1318.964844 567.683594 1349.242188 602.519531 C 1379.523438 637.359375 1393.570312 679.339844 1391.386719 728.46875 " fill-opacity="1" fill-rule="nonzero"/></svg>