<svg xmlns="http://www.w3.org/2000/svg" xmlns:xlink="http://www.w3.org/1999/xlink" width="1920" zoomAndPan="magnify" viewBox="0 0 1440 1439.999935" height="1920" preserveAspectRatio="xMidYMid meet" version="1.0"><path fill="#ffffff" d="M 1322.910156 112.800781 L 1322.910156 141.289062 L 1344.953125 141.289062 L 1344.953125 112.800781 L 1360.519531 97.195312 L 1389.042969 97.195312 L 1389.042969 75.144531 L 1360.519531 75.144531 L 1344.953125 59.578125 L 1344.953125 31.050781 L 1322.910156 31.050781 L 1322.910156 59.578125 L 1307.308594 75.144531 L 1278.824219 75.144531 L 1278.824219 97.195312 L 1307.308594 97.195312 Z M 1322.910156 112.800781 " fill-opacity="1" fill-rule="nonzero"/><path fill="#ffffff" d="M 1411.085938 75.144531 L 1433.128906 75.144531 L 1433.128906 97.195312 L 1411.085938 97.195312 Z M 1411.085938 75.144531 " fill-opacity="1" fill-rule="nonzero"/><path fill="#ffffff" d="M 1322.910156 -13.046875 L 1344.953125 -13.046875 L 1344.953125 9 L 1322.910156 9 Z M 1322.910156 -13.046875 " fill-opacity="1" fill-rule="nonzero"/><path fill="#ffffff" d="M 1234.734375 75.144531 L 1256.777344 75.144531 L 1256.777344 97.195312 L 1234.734375 97.195312 Z M 1234.734375 75.144531 " fill-opacity="1" fill-rule="nonzero"/><path fill="#ffffff" d="M 1322.910156 163.339844 L 1344.953125 163.339844 L 1344.953125 185.386719 L 1322.910156 185.386719 Z M 1322.910156 163.339844 " fill-opacity="1" fill-rule="nonzero"/><path fill="#ffffff" d="M 260.695312 1236.46875 L 260.695312 1207.941406 L 238.652344 1207.941406 L 238.652344 1236.46875 L 223.050781 1252.039062 L 194.566406 1252.039062 L 194.566406 1274.085938 L 223.050781 1274.085938 L 238.652344 1289.691406 L 238.652344 1318.183594 L 260.695312 1318.183594 L 260.695312 1289.691406 L 276.261719 1274.085938 L 304.785156 1274.085938 L 304.785156 1252.039062 L 276.261719 1252.039062 Z M 260.695312 1236.46875 " fill-opacity="1" fill-rule="nonzero"/><path fill="#ffffff" d="M 326.828125 1252.039062 L 348.871094 1252.039062 L 348.871094 1274.085938 L 326.828125 1274.085938 Z M 326.828125 1252.039062 " fill-opacity="1" fill-rule="nonzero"/><path fill="#ffffff" d="M 238.652344 1163.847656 L 260.695312 1163.847656 L 260.695312 1185.894531 L 238.652344 1185.894531 Z M 238.652344 1163.847656 " fill-opacity="1" fill-rule="nonzero"/><path fill="#ffffff" d="M 150.476562 1252.039062 L 172.519531 1252.039062 L 172.519531 1274.085938 L 150.476562 1274.085938 Z M 150.476562 1252.039062 " fill-opacity="1" fill-rule="nonzero"/><path fill="#ffffff" d="M 238.652344 1340.230469 L 260.695312 1340.230469 L 260.695312 1362.28125 L 238.652344 1362.28125 Z M 238.652344 1340.230469 " fill-opacity="1" fill-rule="nonzero"/><path fill="#ffffff" d="M 1428.761719 560.5625 C 1422.824219 555.804688 1414.484375 555.015625 1407.578125 558.378906 C 1406.578125 558.988281 1309.097656 606.953125 1109.953125 560.957031 C 911.023438 515.179688 844.03125 429.347656 843.460938 428.5625 C 838.699219 422.40625 830.96875 419.433594 823.457031 421.042969 C 815.941406 422.621094 809.964844 428.382812 808.210938 435.898438 L 764.230469 627.351562 C 728.160156 654.304688 666.535156 690.957031 572.027344 721.09375 C 377.25 783.121094 276.011719 743.5 275.1875 743.105469 C 268.066406 740.136719 259.730469 741.710938 254.183594 746.863281 C 248.421875 752.019531 246.273438 760.144531 248.636719 767.480469 L 377.035156 1170.398438 C 394.675781 1225.875 419.832031 1274.660156 451.933594 1315.464844 C 498.882812 1374.914062 576.179688 1440.308594 689.726562 1440.308594 C 706.972656 1440.308594 725.011719 1438.734375 744.011719 1435.546875 C 760.472656 1432.96875 777.902344 1428.605469 795.722656 1422.875 C 813.9375 1417.113281 830.183594 1410.601562 844.675781 1403.261719 C 875.773438 1388.585938 902.71875 1369.976562 925.335938 1347.785156 C 944.554688 1329.171875 960.800781 1307.945312 973.898438 1284.179688 C 981.804688 1285.578125 989.535156 1286.542969 996.871094 1286.972656 C 1007.175781 1287.976562 1016.875 1288.367188 1026.609375 1288.367188 C 1154.398438 1288.367188 1233.664062 1211.09375 1278.25 1143.480469 C 1306.984375 1100.457031 1328.171875 1049.738281 1341.269531 992.652344 L 1435.992188 580.609375 C 1437.78125 573.089844 1434.992188 565.144531 1428.871094 560.601562 Z M 519.28125 1089.71875 C 471.328125 1089.71875 426.738281 1059.011719 411.28125 1011.046875 L 398.003906 969.421875 C 394.820312 958.933594 400.582031 947.804688 410.886719 944.4375 L 479.84375 922.640625 C 508.582031 913.335938 539.285156 915.910156 566.050781 929.761719 C 592.820312 943.617188 612.824219 967.238281 621.914062 995.945312 L 635.1875 1037.570312 C 638.375 1048.058594 632.613281 1059.1875 622.304688 1062.554688 L 553.5625 1084.351562 C 542.074219 1088.109375 530.589844 1089.71875 519.28125 1089.71875 Z M 752.097656 1282.964844 C 751.492188 1283.179688 750.703125 1283.359375 749.917969 1283.574219 C 749.308594 1283.789062 748.734375 1283.964844 748.128906 1283.964844 C 730.878906 1288.332031 714.847656 1290.300781 700.175781 1290.300781 C 625.277344 1290.300781 583.265625 1241.335938 570.382812 1210.234375 C 568.199219 1205.078125 568.199219 1199.316406 570.597656 1194.164062 C 572.957031 1189.222656 577.324219 1185.429688 582.476562 1183.675781 L 706.722656 1144.054688 L 830.96875 1104.609375 C 836.125 1102.820312 841.882812 1103.429688 846.824219 1106.183594 C 851.582031 1108.976562 854.945312 1113.703125 856.34375 1119.070312 C 865.074219 1158.511719 854.765625 1243.519531 752.097656 1282.964844 Z M 863.25 950.808594 C 849.578125 977.761719 825.996094 997.589844 797.261719 1006.683594 L 728.300781 1028.695312 C 726.511719 1029.300781 724.328125 1029.695312 722.363281 1029.695312 C 719.175781 1029.695312 716.027344 1028.910156 713.238281 1027.511719 C 708.691406 1024.9375 705.113281 1020.785156 703.539062 1015.808594 L 690.261719 974.183594 C 681.136719 945.441406 683.535156 914.730469 697.597656 887.957031 C 711.269531 861.007812 734.851562 841.175781 763.585938 832.085938 L 832.542969 810.074219 C 842.851562 806.710938 854.160156 812.4375 857.308594 822.960938 L 870.585938 864.585938 C 879.886719 893.328125 877.132812 924.039062 863.25 950.808594 Z M 1302.546875 983.703125 C 1290.453125 1036.210938 1271.238281 1082.597656 1245.078125 1121.648438 C 1203.066406 1185.25 1126.59375 1258.589844 999.984375 1247.492188 C 997.191406 1247.277344 994.222656 1247.101562 991.46875 1246.707031 C 992.253906 1244.738281 992.863281 1242.949219 993.433594 1240.945312 C 993.828125 1240.550781 993.828125 1239.941406 994.042969 1239.546875 C 999.804688 1223.90625 1004.136719 1207.226562 1007.320312 1190.191406 C 1008.5 1184.425781 1009.503906 1178.484375 1010.289062 1172.542969 C 1011.292969 1166.78125 1011.863281 1160.660156 1012.472656 1154.71875 C 1013.082031 1149.566406 1013.476562 1144.410156 1013.652344 1139.257812 L 1014.046875 1139.257812 C 1098.644531 1139.257812 1140.871094 1081.59375 1151.75 1048.488281 C 1153.539062 1043.15625 1152.929688 1037.390625 1150.175781 1032.632812 C 1147.382812 1027.691406 1142.839844 1024.292969 1137.292969 1022.933594 L 1010.46875 993.617188 L 995.617188 990.253906 C 994.042969 985.097656 992.648438 979.765625 990.859375 974.613281 L 959.367188 875.933594 L 979.191406 880.476562 C 980.765625 880.691406 982.164062 880.871094 983.558594 880.871094 C 992.683594 880.871094 1000.808594 874.714844 1002.988281 865.625 L 1012.6875 823.210938 L 1012.6875 822.996094 C 1026.75 762.363281 988.710938 701.515625 927.875 687.234375 L 897.171875 680.289062 L 862.496094 571.695312 C 860.136719 564.359375 853.765625 559.023438 846.25 558.023438 C 838.519531 557.019531 831.003906 560.601562 826.820312 567.148438 C 826.820312 567.148438 824.027344 571.300781 818.085938 578.246094 C 817.300781 579.246094 816.511719 580.214844 815.296875 581.429688 L 838.664062 479.960938 C 876.132812 512.457031 955.96875 566.183594 1101.003906 599.648438 C 1246.257812 633.152344 1341.339844 619.65625 1389.292969 606.773438 L 1302.511719 983.738281 Z M 1302.546875 983.703125 " fill-opacity="1" fill-rule="nonzero"/><path fill="#ffffff" d="M 1132.925781 768.484375 C 1107.375 784.554688 1089.519531 809.714844 1082.613281 839.03125 L 1072.914062 881.621094 C 1070.550781 892.324219 1077.066406 902.8125 1087.765625 905.390625 L 1158.121094 921.640625 C 1166.636719 923.605469 1175.152344 924.429688 1183.492188 924.429688 C 1235.023438 924.429688 1281.757812 888.960938 1293.851562 836.847656 L 1303.550781 794.253906 C 1304.730469 789.097656 1303.765625 783.765625 1300.972656 779.183594 C 1298.183594 774.816406 1293.851562 771.667969 1288.699219 770.453125 L 1218.347656 754.203125 C 1188.824219 747.472656 1158.511719 752.625 1132.960938 768.484375 Z M 1132.925781 768.484375 " fill-opacity="1" fill-rule="nonzero"/><path fill="#ffffff" d="M 267.675781 395.132812 C 271.503906 398.640625 275.867188 401.464844 280.089844 404.472656 C 292.972656 399.785156 306.609375 396.847656 320.671875 396.167969 C 329.261719 395.738281 337.742188 396.457031 346.078125 397.601562 L 247.707031 308.226562 L 270.894531 282.671875 L 367.335938 370.292969 C 366.546875 365.101562 366.011719 359.804688 365.761719 354.507812 C 364.972656 338.148438 366.871094 322.042969 371.058594 306.652344 C 367.40625 302.285156 363.507812 298.0625 359.285156 294.230469 C 333.554688 270.894531 300.347656 258.941406 265.632812 260.585938 L 223.15625 262.628906 L 225.195312 305.113281 C 226.878906 339.796875 241.945312 371.757812 267.636719 395.132812 Z M 267.675781 395.132812 " fill-opacity="1" fill-rule="nonzero"/><path fill="#ffffff" d="M 1230.871094 457.300781 L 1248.082031 460.488281 L 1241.785156 476.84375 C 1237.167969 488.871094 1240.78125 502.257812 1250.730469 510.097656 C 1260.714844 517.972656 1274.527344 518.363281 1285.15625 511.0625 L 1299.578125 501.148438 L 1306.664062 517.148438 C 1311.886719 528.921875 1323.875 535.796875 1336.472656 534.328125 C 1349.070312 532.859375 1359.160156 523.339844 1361.488281 510.707031 L 1364.671875 493.488281 L 1381.027344 499.789062 C 1393.015625 504.40625 1406.398438 500.789062 1414.269531 490.839844 C 1422.144531 480.855469 1422.5 467.039062 1415.238281 456.40625 L 1405.324219 441.984375 L 1421.320312 434.898438 C 1433.09375 429.671875 1439.964844 417.679688 1438.496094 405.082031 C 1437.03125 392.484375 1427.511719 382.390625 1414.878906 380.0625 L 1397.664062 376.878906 L 1403.964844 360.519531 C 1408.617188 348.457031 1404.964844 335.105469 1395.019531 327.269531 C 1385.035156 319.394531 1371.21875 319 1360.59375 326.300781 L 1346.171875 336.214844 L 1339.085938 320.21875 C 1333.859375 308.441406 1321.871094 301.570312 1309.277344 303.035156 C 1296.679688 304.503906 1286.589844 314.023438 1284.261719 326.660156 L 1281.078125 343.875 L 1264.722656 337.578125 C 1252.734375 332.960938 1239.351562 336.574219 1231.480469 346.523438 C 1223.605469 356.511719 1223.210938 370.328125 1230.511719 380.957031 L 1240.425781 395.382812 L 1224.429688 402.46875 C 1212.65625 407.695312 1205.785156 419.683594 1207.253906 432.285156 C 1208.71875 444.882812 1218.238281 454.976562 1230.871094 457.300781 Z M 1317.792969 375.265625 C 1341.769531 372.4375 1363.457031 389.582031 1366.28125 413.5625 C 1369.109375 437.507812 1351.96875 459.234375 1327.992188 462.0625 C 1304.015625 464.890625 1282.328125 447.746094 1279.503906 423.765625 C 1276.675781 399.785156 1293.816406 378.09375 1317.792969 375.265625 Z M 1317.792969 375.265625 " fill-opacity="1" fill-rule="nonzero"/><path fill="#ffffff" d="M 586.128906 302.75 L 601.015625 269.214844 L 577.324219 207.542969 L 609.53125 195.160156 L 620.839844 224.617188 L 645.960938 168.0625 L 677.488281 182.09375 L 652.367188 238.644531 L 681.816406 227.335938 L 694.199219 259.550781 L 632.539062 283.242188 L 621.410156 308.261719 C 628.746094 311.519531 635.226562 316.03125 640.769531 321.328125 C 674.515625 315.492188 703.539062 293.375 717.601562 261.734375 C 730.089844 233.636719 729.449219 201.707031 715.886719 174.113281 L 687.613281 116.773438 L 626.097656 134.203125 C 596.539062 142.613281 572.457031 163.519531 559.96875 191.613281 C 543.042969 229.734375 550.558594 273.472656 578.898438 303.859375 C 581.261719 303.359375 583.695312 303 586.089844 302.75 Z M 586.128906 302.75 " fill-opacity="1" fill-rule="nonzero"/><path fill="#ffffff" d="M 245.59375 721.128906 C 250.246094 707.957031 255.007812 680.253906 234.679688 642.816406 C 229.671875 633.617188 223.15625 625.382812 215.285156 618.296875 C 208.808594 619.800781 202.152344 619.476562 195.925781 617.617188 C 192.167969 623.59375 187.871094 629.140625 183.148438 634.1875 C 175.527344 642.277344 163.574219 654.125 147.863281 663.644531 C 147.863281 663.683594 147.792969 663.753906 147.757812 663.789062 C 127.214844 693.03125 123.816406 722.703125 137.628906 751.980469 C 144.035156 765.582031 152.695312 775.925781 158.566406 782.011719 C 160.640625 784.195312 163.683594 785.199219 166.652344 784.734375 C 173.414062 783.621094 183.398438 781.367188 194.097656 776.644531 C 219.148438 765.621094 236.46875 746.972656 245.59375 721.164062 Z M 245.59375 721.128906 " fill-opacity="1" fill-rule="nonzero"/><path fill="#ffffff" d="M 166.972656 618.871094 C 170.839844 614.753906 174.347656 610.207031 177.386719 605.304688 C 175.167969 602.621094 173.238281 599.648438 171.699219 596.320312 C 169.765625 592.097656 168.65625 587.730469 168.261719 583.363281 L 163.179688 581.753906 C 159.246094 580.679688 129.613281 571.765625 104.421875 541.488281 C 77.117188 531.359375 51.101562 536.332031 27.054688 556.304688 C 15.710938 565.71875 7.265625 576.527344 2.113281 584.007812 C 0.144531 586.871094 -0.0703125 590.59375 1.609375 593.671875 C 5.1875 600.292969 10.878906 609.492188 18.894531 618.761719 C 38.46875 641.492188 62.230469 654.234375 89.425781 656.558594 C 115.550781 658.816406 140.921875 646.464844 166.972656 618.835938 Z M 166.972656 618.871094 " fill-opacity="1" fill-rule="nonzero"/><path fill="#ffffff" d="M 145.039062 548.429688 C 158.3125 557.34375 168.976562 560.242188 169.085938 560.242188 C 169.300781 560.277344 169.441406 560.347656 169.65625 560.421875 L 172.734375 561.386719 C 176.492188 554.445312 182.398438 548.609375 190.054688 545.136719 C 191.058594 544.671875 192.058594 544.277344 193.097656 543.921875 C 192.382812 537.371094 192.203125 530.855469 192.597656 524.59375 C 193.707031 507.125 198.394531 484.113281 212.851562 462.957031 C 206.085938 429.671875 188.480469 407.300781 160.460938 396.417969 C 146.863281 391.160156 133.695312 389.796875 125.285156 389.546875 C 122.207031 389.476562 119.273438 390.945312 117.519531 393.449219 C 113.296875 399.425781 107.535156 408.839844 102.953125 420.617188 C 92.398438 447.816406 92.933594 474.484375 104.566406 499.96875 C 113.867188 520.332031 127.503906 536.617188 145.074219 548.429688 Z M 145.039062 548.429688 " fill-opacity="1" fill-rule="nonzero"/><path fill="#ffffff" d="M 239.796875 562.785156 L 241.121094 562.140625 C 252.535156 556.519531 280.808594 545.636719 314.910156 554.121094 C 340.03125 541.59375 354.167969 519.257812 356.957031 487.582031 C 358.316406 472.226562 356.601562 457.984375 354.953125 448.785156 C 354.347656 445.382812 351.875 442.628906 348.621094 441.625 C 341.605469 439.441406 331.445312 436.9375 319.632812 435.96875 C 290.613281 433.679688 265.632812 441.589844 245.378906 459.484375 C 241.230469 463.136719 237.613281 467.039062 234.5 471.046875 C 233.964844 472.011719 233.285156 472.910156 232.496094 473.695312 C 219.828125 491.304688 215.785156 511.027344 214.855469 525.917969 C 214.496094 531.464844 214.710938 537.191406 215.464844 543.0625 C 225.589844 545.816406 234.609375 552.726562 239.832031 562.746094 Z M 239.796875 562.785156 " fill-opacity="1" fill-rule="nonzero"/><path fill="#ffffff" d="M 320.136719 579.175781 C 317.808594 578.246094 315.484375 577.492188 313.191406 576.8125 C 312.976562 576.742188 312.761719 576.707031 312.546875 576.636719 C 284.136719 568.4375 260.339844 577.601562 250.890625 582.21875 L 244.089844 585.511719 C 243.234375 593.207031 240.082031 600.507812 235.074219 606.34375 C 242.695312 614.039062 249.136719 622.699219 254.289062 632.183594 C 261.054688 644.605469 269.855469 664.863281 271.683594 688.058594 C 299.664062 707.421875 329.261719 711.714844 359.714844 700.761719 C 373.203125 695.929688 384.15625 688.953125 391.347656 683.617188 C 394.425781 681.328125 395.75 677.355469 394.710938 673.667969 C 392.351562 665.328125 388.378906 653.445312 382.117188 640.8125 C 366.90625 610.066406 346.042969 589.304688 320.136719 579.175781 Z M 320.136719 579.175781 " fill-opacity="1" fill-rule="nonzero"/><path fill="#ffffff" d="M 199.539062 565.648438 C 191.273438 569.40625 187.65625 579.175781 191.414062 587.410156 C 195.171875 595.675781 204.941406 599.292969 213.171875 595.535156 C 221.4375 591.773438 225.054688 582.003906 221.296875 573.773438 C 217.539062 565.503906 207.769531 561.886719 199.539062 565.683594 Z M 199.539062 565.648438 " fill-opacity="1" fill-rule="nonzero"/><path fill="#ffffff" d="M 562.007812 520.40625 C 557.070312 523.660156 551.488281 526.058594 545.476562 527.277344 L 545.476562 600.652344 C 545.476562 600.652344 545.476562 600.832031 545.476562 600.9375 C 545.402344 606.414062 546.441406 611.746094 548.550781 616.828125 C 552.667969 626.78125 560.433594 634.546875 570.417969 638.699219 C 580.367188 642.816406 591.351562 642.816406 601.335938 638.699219 C 611.285156 634.582031 619.050781 626.816406 623.199219 616.828125 C 627.316406 606.878906 627.316406 595.890625 623.199219 585.90625 C 621.089844 580.785156 618.011719 576.242188 614.074219 572.410156 L 562.042969 520.367188 Z M 562.007812 520.40625 " fill-opacity="1" fill-rule="nonzero"/><path fill="#ffffff" d="M 458.265625 572.304688 C 458.265625 572.304688 458.160156 572.410156 458.125 572.445312 C 454.1875 576.277344 451.109375 580.824219 448.996094 585.941406 C 444.882812 595.890625 444.882812 606.878906 448.996094 616.828125 C 453.113281 626.78125 460.878906 634.546875 470.863281 638.699219 C 480.8125 642.816406 491.796875 642.816406 501.78125 638.699219 C 511.730469 634.582031 519.496094 626.816406 523.644531 616.828125 C 525.757812 611.746094 526.796875 606.34375 526.722656 600.867188 L 526.722656 527.277344 C 520.710938 526.058594 515.128906 523.699219 510.191406 520.40625 L 458.300781 572.304688 Z M 458.265625 572.304688 " fill-opacity="1" fill-rule="nonzero"/><path fill="#ffffff" d="M 627.351562 559.132812 C 631.179688 563.070312 635.726562 566.148438 640.84375 568.257812 C 650.792969 572.375 661.777344 572.375 671.761719 568.257812 C 681.710938 564.144531 689.476562 556.375 693.625 546.390625 C 697.742188 536.441406 697.742188 525.453125 693.625 515.464844 C 689.511719 505.515625 681.746094 497.75 671.761719 493.597656 C 666.789062 491.519531 661.5625 490.519531 656.230469 490.519531 C 656.050781 490.519531 655.835938 490.519531 655.65625 490.519531 L 582.226562 490.519531 C 581.011719 496.53125 578.648438 502.113281 575.355469 507.054688 L 627.246094 558.953125 C 627.246094 558.953125 627.316406 559.0625 627.386719 559.097656 Z M 627.351562 559.132812 " fill-opacity="1" fill-rule="nonzero"/><path fill="#ffffff" d="M 400.4375 568.257812 C 410.386719 572.375 421.371094 572.375 431.355469 568.257812 C 436.472656 566.148438 441.019531 563.070312 444.847656 559.132812 L 496.878906 507.089844 C 493.621094 502.152344 491.226562 496.566406 490.007812 490.554688 L 416.648438 490.554688 C 416.398438 490.554688 416.148438 490.554688 415.898438 490.554688 C 410.601562 490.554688 405.410156 491.59375 400.472656 493.632812 C 390.523438 497.75 382.757812 505.515625 378.609375 515.5 C 374.492188 525.453125 374.492188 536.441406 378.609375 546.425781 C 382.722656 556.375 390.488281 564.144531 400.472656 568.296875 Z M 400.4375 568.257812 " fill-opacity="1" fill-rule="nonzero"/><path fill="#ffffff" d="M 400.4375 468.648438 C 405.519531 470.761719 410.921875 471.796875 416.398438 471.726562 L 490.007812 471.726562 C 491.226562 465.714844 493.585938 460.128906 496.878906 455.191406 L 444.988281 403.292969 C 444.988281 403.292969 444.882812 403.183594 444.847656 403.148438 C 441.019531 399.210938 436.472656 396.132812 431.355469 394.023438 C 421.40625 389.90625 410.421875 389.90625 400.4375 394.023438 C 390.488281 398.136719 382.722656 405.90625 378.574219 415.890625 C 374.457031 425.839844 374.457031 436.828125 378.574219 446.816406 C 382.6875 456.765625 390.453125 464.53125 400.4375 468.683594 Z M 400.4375 468.648438 " fill-opacity="1" fill-rule="nonzero"/><path fill="#ffffff" d="M 693.589844 415.890625 C 689.476562 405.941406 681.710938 398.171875 671.726562 394.023438 C 661.777344 389.90625 650.792969 389.90625 640.808594 394.023438 C 635.691406 396.132812 631.144531 399.210938 627.316406 403.148438 L 575.285156 455.191406 C 578.539062 460.128906 580.9375 465.714844 582.15625 471.726562 L 655.800781 471.726562 C 661.242188 471.796875 666.609375 470.761719 671.691406 468.648438 C 681.636719 464.53125 689.402344 456.765625 693.554688 446.78125 C 697.671875 436.828125 697.671875 425.839844 693.554688 415.890625 Z M 693.589844 415.890625 " fill-opacity="1" fill-rule="nonzero"/><path fill="#ffffff" d="M 507.863281 481.140625 C 507.863281 496.710938 520.53125 509.378906 536.097656 509.378906 C 551.667969 509.378906 564.335938 496.710938 564.335938 481.140625 C 564.335938 465.570312 551.667969 452.898438 536.097656 452.898438 C 520.53125 452.898438 507.863281 465.570312 507.863281 481.140625 Z M 507.863281 481.140625 " fill-opacity="1" fill-rule="nonzero"/><path fill="#ffffff" d="M 613.898438 390.011719 C 613.898438 390.011719 614.003906 389.90625 614.039062 389.871094 C 617.976562 386.039062 621.054688 381.496094 623.164062 376.375 C 627.28125 366.425781 627.28125 355.4375 623.164062 345.488281 C 619.050781 335.535156 611.285156 327.769531 601.300781 323.617188 C 591.351562 319.5 580.367188 319.5 570.382812 323.617188 C 560.433594 327.734375 552.667969 335.5 548.515625 345.488281 C 546.40625 350.570312 545.367188 355.9375 545.4375 361.449219 L 545.4375 435.039062 C 551.453125 436.257812 557.035156 438.617188 561.972656 441.910156 L 613.859375 390.011719 Z M 613.898438 390.011719 " fill-opacity="1" fill-rule="nonzero"/><path fill="#ffffff" d="M 458.125 389.871094 L 458.230469 389.976562 L 510.15625 441.910156 C 515.09375 438.65625 520.675781 436.257812 526.6875 435.039062 L 526.6875 361.378906 C 526.757812 355.902344 525.722656 350.570312 523.609375 345.488281 C 519.496094 335.535156 511.730469 327.769531 501.746094 323.617188 C 491.761719 319.464844 480.8125 319.5 470.828125 323.617188 C 460.84375 327.734375 453.113281 335.5 448.960938 345.488281 C 444.847656 355.4375 444.847656 366.425781 448.960938 376.410156 C 451.074219 381.53125 454.152344 386.074219 458.085938 389.90625 Z M 458.125 389.871094 " fill-opacity="1" fill-rule="nonzero"/><path fill="#ffffff" d="M 809.570312 223.757812 C 849.613281 234.496094 890.910156 238.609375 932.3125 235.890625 L 951.566406 234.671875 C 952.710938 234.601562 952.925781 236.25 951.851562 236.425781 L 932.851562 240.257812 C 892.164062 248.382812 853.371094 263.019531 817.441406 283.78125 C 808.03125 289.222656 801.304688 297.847656 798.441406 308.121094 C 792.359375 329.738281 805.203125 352.574219 826.785156 358.730469 C 837.484375 361.773438 848.753906 360.304688 858.417969 354.722656 C 894.347656 333.960938 926.410156 307.691406 953.785156 276.480469 L 966.597656 261.910156 C 967.382812 261.089844 968.601562 262.089844 967.992188 263.019531 L 957.328125 279.09375 C 934.316406 313.632812 917.25 351.429688 906.511719 391.515625 C 903.6875 402.109375 905.117188 413.171875 910.664062 422.621094 C 916.175781 432.140625 924.941406 438.90625 935.535156 441.734375 C 946.128906 444.5625 957.183594 443.128906 966.632812 437.582031 C 976.152344 432.070312 982.914062 423.300781 985.742188 412.707031 C 996.476562 372.652344 1000.59375 331.347656 997.871094 289.9375 L 996.65625 270.679688 C 996.585938 269.535156 998.230469 269.320312 998.410156 270.394531 L 1002.238281 289.398438 C 1010.363281 330.097656 1024.996094 368.894531 1045.753906 404.832031 C 1051.191406 414.246094 1059.816406 420.972656 1070.085938 423.835938 C 1091.703125 429.921875 1114.53125 417.070312 1120.6875 395.488281 C 1123.730469 384.785156 1122.261719 373.511719 1116.679688 363.847656 C 1095.925781 327.914062 1069.65625 295.84375 1038.453125 268.460938 L 1023.890625 255.648438 C 1023.066406 254.859375 1024.066406 253.644531 1024.996094 254.25 L 1041.066406 264.917969 C 1075.597656 287.933594 1113.386719 305.003906 1153.46875 315.742188 C 1164.058594 318.570312 1175.117188 317.140625 1184.566406 311.589844 C 1204.175781 300.246094 1210.9375 275.046875 1199.558594 255.503906 C 1194.046875 245.984375 1185.28125 239.21875 1174.6875 236.390625 C 1134.644531 225.652344 1093.347656 221.539062 1051.945312 224.257812 L 1032.691406 225.476562 C 1031.546875 225.546875 1031.332031 223.898438 1032.40625 223.722656 L 1051.40625 219.890625 C 1092.09375 211.765625 1130.886719 197.128906 1166.816406 176.367188 C 1176.226562 170.925781 1182.953125 162.300781 1185.816406 152.027344 C 1191.902344 130.410156 1179.054688 107.574219 1157.476562 101.417969 C 1146.773438 98.375 1135.503906 99.84375 1125.839844 105.425781 C 1089.914062 126.1875 1057.847656 152.457031 1030.472656 183.667969 L 1017.660156 198.238281 C 1016.875 199.058594 1015.65625 198.058594 1016.265625 197.128906 L 1026.929688 181.054688 C 1049.941406 146.515625 1067.011719 108.71875 1077.746094 68.632812 C 1080.574219 58.039062 1079.140625 46.976562 1073.59375 37.527344 C 1068.082031 28.007812 1059.316406 21.242188 1048.722656 18.414062 C 1038.132812 15.585938 1027.074219 17.019531 1017.625 22.566406 C 1008.105469 28.078125 1001.34375 36.847656 998.515625 47.441406 C 987.78125 87.496094 983.667969 128.800781 986.386719 170.210938 L 987.601562 189.46875 C 987.675781 190.613281 986.027344 190.828125 985.847656 189.753906 L 982.019531 170.746094 C 973.898438 130.050781 959.261719 91.253906 938.503906 55.316406 C 933.066406 45.902344 924.441406 39.175781 914.171875 36.3125 C 892.449219 30.226562 869.617188 43.039062 863.570312 64.660156 C 860.527344 75.359375 861.996094 86.636719 867.578125 96.300781 C 888.332031 132.234375 914.601562 164.304688 945.804688 191.6875 L 960.371094 204.5 C 961.191406 205.289062 960.191406 206.503906 959.261719 205.894531 L 943.191406 195.230469 C 908.660156 172.214844 870.871094 155.140625 830.792969 144.40625 C 820.199219 141.578125 809.140625 143.007812 799.695312 148.558594 C 780.082031 159.902344 773.355469 184.992188 784.699219 204.644531 C 790.210938 214.164062 798.976562 220.929688 809.570312 223.757812 Z M 809.570312 223.757812 " fill-opacity="1" fill-rule="nonzero"/></svg>